HIERARCHY
ROOT Hips
{
	OFFSET 0.000000 89.005402 0.000000
	CHANNELS 6 Xposition Yposition Zposition Xrotation Yrotation Zrotation
	JOINT Spine
	{
		OFFSET 0.116900 10.681000 0.373400
		CHANNELS 3 Xrotation Yrotation Zrotation
		JOINT Spine1
		{
			OFFSET 0.000000 13.840401 0.053500
			CHANNELS 3 Xrotation Yrotation Zrotation
			JOINT Spine2
			{
				OFFSET 0.000000 14.712700 -0.366200
				CHANNELS 3 Xrotation Yrotation Zrotation
				JOINT Neck
				{
					OFFSET 0.000000 35.415497 -3.314200
					CHANNELS 3 Xrotation Yrotation Zrotation
					JOINT Head
					{
						OFFSET 0.000000 16.899200 1.218300
						CHANNELS 3 Xrotation Yrotation Zrotation
						JOINT HeadTop_End
						{
							OFFSET 0.000000 22.206207 2.192500
							CHANNELS 3 Xrotation Yrotation Zrotation
							End Site
							{
								OFFSET 0.000000 22.314178 0.000000
							}
						}
					}
				}
				JOINT LeftShoulder
				{
					OFFSET 12.896400 26.716293 -4.548400
					CHANNELS 3 Xrotation Yrotation Zrotation
					JOINT LeftArm
					{
						OFFSET 19.027000 -4.857010 -1.718400
						CHANNELS 3 Xrotation Yrotation Zrotation
						JOINT LeftForeArm
						{
							OFFSET 24.179897 0.000000 0.000000
							CHANNELS 3 Xrotation Yrotation Zrotation
							JOINT LeftHand
							{
								OFFSET 27.156403 0.000000 0.000000
								CHANNELS 3 Xrotation Yrotation Zrotation
								JOINT LeftHandIndex1
								{
									OFFSET 16.441200 0.000000 0.000000
									CHANNELS 3 Xrotation Yrotation Zrotation
									JOINT LeftHandIndex2
									{
										OFFSET 4.821899 0.000000 0.000000
										CHANNELS 3 Xrotation Yrotation Zrotation
										JOINT LeftHandIndex3
										{
											OFFSET 6.386497 0.000000 0.000000
											CHANNELS 3 Xrotation Yrotation Zrotation
											JOINT LeftHandIndex4
											{
												OFFSET 5.188988 0.000000 0.000000
												CHANNELS 3 Xrotation Yrotation Zrotation
												End Site
												{
													OFFSET -0.178703 5.185913 0.000177
												}
											}
										}
									}
								}
								JOINT LeftHandThumb1
								{
									OFFSET 6.534897 -5.032593 5.900300
									CHANNELS 3 Xrotation Yrotation Zrotation
									JOINT LeftHandThumb2
									{
										OFFSET 3.818176 -2.204422 2.204423
										CHANNELS 3 Xrotation Yrotation Zrotation
										JOINT LeftHandThumb3
										{
											OFFSET 3.252098 -1.877594 1.877601
											CHANNELS 3 Xrotation Yrotation Zrotation
											JOINT LeftHandThumb4
											{
												OFFSET 5.251778 -3.032120 3.032117
												CHANNELS 3 Xrotation Yrotation Zrotation
												End Site
												{
													OFFSET 0.000023 6.780014 0.000000
												}
											}
										}
									}
								}
							}
						}
					}
				}
				JOINT RightShoulder
				{
					OFFSET -12.896300 26.716293 -4.548400
					CHANNELS 3 Xrotation Yrotation Zrotation
					JOINT RightArm
					{
						OFFSET -19.027000 -4.857010 -1.718400
						CHANNELS 3 Xrotation Yrotation Zrotation
						JOINT RightForeArm
						{
							OFFSET -24.179897 0.000000 0.000000
							CHANNELS 3 Xrotation Yrotation Zrotation
							JOINT RightHand
							{
								OFFSET -27.156403 0.000000 0.000000
								CHANNELS 3 Xrotation Yrotation Zrotation
								JOINT RightHandThumb1
								{
									OFFSET -6.591202 -4.852203 5.988100
									CHANNELS 3 Xrotation Yrotation Zrotation
									JOINT RightHandThumb2
									{
										OFFSET -3.818176 -2.204422 2.204423
										CHANNELS 3 Xrotation Yrotation Zrotation
										JOINT RightHandThumb3
										{
											OFFSET -3.252098 -1.877594 1.877601
											CHANNELS 3 Xrotation Yrotation Zrotation
											JOINT RightHandThumb4
											{
												OFFSET -5.251778 -3.032120 3.032117
												CHANNELS 3 Xrotation Yrotation Zrotation
												End Site
												{
													OFFSET -0.000023 6.780014 0.000000
												}
											}
										}
									}
								}
								JOINT RightHandIndex1
								{
									OFFSET -16.029404 0.000000 0.000000
									CHANNELS 3 Xrotation Yrotation Zrotation
									JOINT RightHandIndex2
									{
										OFFSET -5.213303 0.000000 0.000000
										CHANNELS 3 Xrotation Yrotation Zrotation
										JOINT RightHandIndex3
										{
											OFFSET -6.386528 0.000000 0.000000
											CHANNELS 3 Xrotation Yrotation Zrotation
											JOINT RightHandIndex4
											{
												OFFSET -5.189026 0.000000 0.000000
												CHANNELS 3 Xrotation Yrotation Zrotation
												End Site
												{
													OFFSET 0.236702 5.183624 0.001972
												}
											}
										}
									}
								}
							}
						}
					}
				}
			}
		}
	}
	JOINT LeftUpLeg
	{
		OFFSET 14.073000 -7.904099 -1.463000
		CHANNELS 3 Xrotation Yrotation Zrotation
		JOINT LeftLeg
		{
			OFFSET -0.109806 -34.073280 4.093200
			CHANNELS 3 Xrotation Yrotation Zrotation
			JOINT LeftFoot
			{
				OFFSET 0.109806 -29.899420 -6.319000
				CHANNELS 3 Xrotation Yrotation Zrotation
				JOINT LeftToeBase
				{
					OFFSET 1.551100 -14.988700 20.535801
					CHANNELS 3 Xrotation Yrotation Zrotation
					JOINT LeftToe_End
					{
						OFFSET 0.221200 0.570800 13.248301
						CHANNELS 3 Xrotation Yrotation Zrotation
						End Site
						{
							OFFSET 0.000000 13.262435 0.000000
						}
					}
				}
			}
		}
	}
	JOINT RightUpLeg
	{
		OFFSET -13.839300 -7.904099 -1.463000
		CHANNELS 3 Xrotation Yrotation Zrotation
		JOINT RightLeg
		{
			OFFSET 0.109694 -34.073219 4.093300
			CHANNELS 3 Xrotation Yrotation Zrotation
			JOINT RightFoot
			{
				OFFSET -0.109694 -29.899384 -6.319200
				CHANNELS 3 Xrotation Yrotation Zrotation
				JOINT RightToeBase
				{
					OFFSET -1.551100 -14.988700 20.535801
					CHANNELS 3 Xrotation Yrotation Zrotation
					JOINT RightToe_End
					{
						OFFSET -0.221200 0.570900 13.248299
						CHANNELS 3 Xrotation Yrotation Zrotation
						End Site
						{
							OFFSET 0.000000 13.262440 0.000000
						}
					}
				}
			}
		}
	}
}
MOTION
Frames: 8
Frame Time: 0.033333
1.240026 66.060600 21.268604 20.612640 -0.883586 -3.034737 41.199114 -2.843530 2.872288 5.091136 -1.030727 0.175206 5.090249 -1.026102 0.230252 -0.269942 0.878578 -1.243666 -45.204039 5.259992 -1.839989 -0.000000 -0.000000 0.000000 1.391600 -19.743273 -6.655857 3.384036 -14.703027 -23.077292 -0.000710 -86.808890 -0.000721 22.170348 -5.913762 29.052923 3.907776 8.074866 -55.230993 1.133418 3.464927 -36.217088 0.167226 1.391139 -13.708326 0.000002 -0.000001 0.000002 -16.164922 5.893206 5.336852 13.997522 19.581488 13.107504 0.386570 -15.462490 17.909202 -0.000001 0.000000 -0.000001 1.610265 17.191706 6.401810 12.553935 40.896728 5.043379 -0.000061 69.366862 0.000068 -2.359605 15.797792 -35.187772 -5.273908 6.999275 -12.690903 31.564845 -38.272688 9.922699 2.854892 4.932660 -38.153259 0.000000 0.000002 -0.000001 7.525596 -11.131828 47.589237 0.524594 -2.149177 27.430810 0.007023 0.256042 -3.144516 0.000000 0.000002 0.000002 -81.859947 -1.447970 9.230958 72.039105 2.830231 -2.830917 -10.623435 0.039874 -1.946684 0.469294 -0.004704 0.547995 -0.000000 0.000001 0.000000 -80.574137 -14.188643 -5.118093 65.817895 -3.586426 -3.889663 -7.427891 -5.866780 -2.208864 -7.012768 0.000002 0.000003 -0.000000 0.000000 -0.000000 
0.868580 68.241898 22.264008 22.804479 -1.045167 -2.256908 36.999736 -3.542438 2.472505 4.788700 -1.180394 0.179961 4.788086 -1.178379 0.241135 -0.549161 1.161595 -1.310112 -44.427563 6.040574 -1.579163 0.000004 0.000000 0.000000 0.718508 -20.477143 -8.908460 4.529073 -18.052800 -22.661721 -0.000019 -76.620161 -0.000006 19.568581 -10.269254 27.392390 3.783484 8.071741 -52.831851 1.218622 3.578185 -37.604669 0.232746 1.636451 -16.187854 -0.000001 -0.000001 -0.000002 -12.417522 5.437357 6.832972 14.436235 18.825963 11.967070 0.375977 -16.159121 17.002899 -0.000000 0.000000 -0.000000 1.175796 19.367246 8.085705 14.808649 45.245943 5.599433 -0.000021 56.642906 0.000016 -4.537153 21.459138 -32.151200 -4.527683 5.507984 -10.932311 30.542837 -37.528993 8.914101 2.817081 4.445029 -34.389354 -0.000000 -0.000000 -0.000001 6.970811 -10.990208 45.544005 0.339068 -1.746106 21.975977 0.047169 0.661847 -8.152326 0.000001 0.000001 -0.000001 -79.600172 -1.061746 9.009565 67.112134 3.595426 -2.844767 -9.983425 0.071699 -2.785180 0.469267 -0.004703 0.548044 -0.000000 0.000001 0.000000 -78.870954 -14.285280 -4.537792 61.328555 -3.008825 -4.009095 -6.846241 -5.865460 -2.456342 -7.012775 0.000000 0.000003 -0.000001 0.000000 0.000000 
0.477521 70.416031 23.160954 24.030533 -0.929769 -1.248220 33.300393 -3.468873 1.989375 4.478012 -1.175929 0.335499 4.475148 -1.193274 0.400509 -0.545048 1.422866 -1.736048 -43.201196 6.329001 -1.853740 0.000001 0.000000 -0.000000 1.229591 -21.171440 -9.893267 4.538708 -24.950544 -22.991171 0.000021 -62.331985 0.000025 16.243650 -16.744777 26.383494 3.550433 8.024378 -49.401594 1.236930 3.601788 -37.897059 0.273420 1.770520 -17.556277 -0.000002 -0.000000 0.000001 -8.557120 5.062455 8.311156 14.875599 18.036522 10.819313 0.364927 -16.873801 16.078837 -0.000001 0.000000 0.000000 1.009783 21.541122 8.040696 11.012956 48.596724 12.519227 -0.000004 43.337475 0.000005 -6.831918 27.523106 -28.845303 -3.756873 3.969856 -9.118021 28.055808 -36.637787 5.511861 2.504549 3.021831 -34.020223 -0.000000 0.000000 0.000000 5.303820 -10.128719 40.349121 0.255343 -1.522360 19.040694 0.053476 0.704548 -8.682354 0.000001 0.000001 0.000001 -76.363482 -0.277508 8.559795 61.795290 4.224899 -2.856716 -9.002354 0.081340 -3.431991 0.469066 -0.004711 0.548171 0.000000 0.000000 0.000000 -76.460519 -14.138668 -4.295345 56.965195 -2.414406 -4.122985 -6.160917 -5.873876 -2.652638 -7.012769 0.000009 0.000002 -0.000000 -0.000001 -0.000000 
0.109435 72.370438 24.042080 23.094237 -0.872341 -0.338337 31.532593 -2.923052 1.516483 4.275541 -1.024503 0.394115 4.271707 -1.052259 0.453978 -0.468937 1.604667 -1.907324 -41.824284 6.364646 -2.202597 -0.000003 0.000000 0.000000 3.771476 -25.046575 -9.204050 0.308606 -29.700924 -25.465174 -0.000001 -47.021099 0.000021 10.671959 -22.688266 19.448899 3.184625 7.900978 -44.762270 1.153763 3.492502 -36.552608 0.261555 1.732582 -17.168025 0.000002 0.000000 0.000001 -4.895761 4.786769 9.652148 15.281000 17.277223 9.754503 0.354224 -17.549532 15.210377 -0.000003 0.000000 0.000002 0.863877 22.794928 8.441680 6.564444 50.628992 18.605381 -0.000008 32.828464 0.000007 -9.755471 29.021576 -23.559185 -3.021352 2.509008 -7.392563 23.942187 -35.231752 -0.303140 -0.877322 1.155554 -35.739627 -0.000001 -0.000002 -0.000002 2.910610 -8.165704 31.841307 0.213030 -1.393880 17.379273 0.025533 0.487300 -5.992961 -0.000002 -0.000001 -0.000001 -71.419306 0.704919 8.278620 57.318661 4.541419 -2.865944 -8.467498 0.065951 -3.796807 0.468874 -0.004706 0.548378 -0.000000 -0.000000 -0.000000 -72.281891 -13.930512 -4.085719 53.448645 -1.881032 -4.221459 -5.922443 -5.889337 -2.760482 -7.012771 0.000015 0.000001 0.000000 -0.000001 0.000000 
-0.265610 74.230888 24.955956 21.351339 -1.034054 0.580977 30.451128 -2.329866 0.977183 4.113827 -0.824944 0.344863 4.110358 -0.853400 0.394274 -0.421863 1.722486 -1.828966 -40.512635 6.398432 -2.508281 -0.000001 0.000000 0.000000 7.427009 -26.121415 -8.186613 -6.248859 -36.375047 -28.382525 0.000008 -32.718604 0.000021 5.821817 -25.805746 16.102680 2.636726 7.632660 -38.336441 0.928401 3.166532 -32.673777 0.176686 1.429325 -14.092483 -0.000002 -0.000000 -0.000001 -1.753140 4.605811 10.754762 15.620573 16.617207 8.857972 0.344825 -18.128365 14.470452 -0.000002 0.000002 0.000001 0.682337 23.460867 9.189240 2.331443 51.494599 23.731521 0.000005 25.314010 -0.000013 -11.381632 25.967606 -18.103517 -2.384832 1.253508 -5.906342 19.313968 -33.345089 -6.812237 -5.900735 -0.292293 -38.809835 -0.000000 0.000004 -0.000001 0.885886 -5.205429 22.161462 0.195556 -1.336714 16.645072 0.001675 0.125096 -1.535905 -0.000001 -0.000003 -0.000000 -65.719527 1.449309 7.955196 53.086645 5.098364 -2.878196 -8.067241 0.078559 -4.343774 0.468446 -0.004716 0.548810 -0.000000 0.000001 -0.000000 -67.431008 -13.738625 -3.853242 50.183299 -1.241051 -4.325142 -5.778658 -5.907136 -2.879358 -7.012767 0.000001 0.000001 -0.000000 -0.000000 0.000000 
-0.639370 76.034630 25.926054 19.156626 -1.308893 1.488910 29.759418 -1.697270 0.416295 3.970009 -0.598411 0.243002 3.967506 -0.622730 0.279300 -0.423530 1.561344 -1.417690 -39.213383 6.421065 -2.775163 0.000000 0.000000 0.000000 11.218478 -26.228077 -7.374057 -14.189379 -41.982799 -32.687851 0.000000 -20.990273 0.000003 3.996853 -27.999075 19.595832 1.733330 6.981747 -27.531045 0.499654 2.369341 -23.813526 0.037755 0.664669 -6.500294 -0.000000 -0.000002 -0.000000 0.547195 4.502821 11.533119 15.864388 16.129219 8.211501 0.337486 -18.551560 13.931724 -0.000001 0.000000 0.000000 0.430618 23.236678 10.338797 -2.251709 50.255685 28.717957 -0.000002 22.222733 -0.000014 -10.464652 21.511879 -16.189399 -1.914909 0.333591 -4.814608 15.334290 -31.378128 -12.375987 -10.640916 -0.715928 -42.439257 0.000000 -0.000001 -0.000000 -0.153362 -1.942460 13.468622 0.195693 -1.337165 16.650743 0.007840 -0.270349 3.320692 -0.000000 -0.000001 0.000000 -59.525788 2.239830 7.584292 48.790469 5.619035 -2.897158 -7.645607 0.096524 -4.824802 0.468682 -0.004717 0.548510 -0.000000 0.000000 -0.000000 -62.151313 -13.525550 -3.677359 46.996776 -0.572743 -4.424881 -5.682281 -5.926053 -2.954941 -7.012765 0.000003 0.000000 0.000000 -0.000003 -0.000000 
-1.003268 77.758438 26.966515 16.778042 -1.601443 2.360321 29.211841 -1.066388 -0.136756 3.819368 -0.364471 0.118035 3.818029 -0.382269 0.140427 -0.459389 1.081715 -0.680106 -37.894866 6.446374 -2.962677 -0.000001 0.000000 -0.000000 14.259652 -25.713094 -7.018658 -22.204919 -45.945535 -38.060608 0.000006 -11.748644 0.000025 3.689901 -29.297103 24.052904 1.004079 6.223638 -17.508317 0.204338 1.535223 -15.161070 0.000072 -0.032647 0.318603 -0.000001 -0.000001 -0.000001 1.681932 4.460490 11.908075 15.983216 15.886945 7.895515 0.333337 -18.760197 13.666758 0.000002 0.000000 -0.000002 0.175725 22.666411 11.644212 -6.179022 47.960967 33.010523 -0.000001 21.071169 0.000007 -7.988253 16.296304 -15.637141 -1.681705 -0.120443 -4.274650 13.024421 -30.043519 -15.652734 -13.731372 0.062479 -45.719329 0.000001 0.000002 0.000000 -0.385038 0.654406 7.788466 0.208931 -1.380639 17.209174 0.036898 -0.585687 7.208959 0.000000 -0.000000 0.000001 -53.122343 3.237729 7.107671 44.336216 5.945867 -2.852296 -7.132564 0.078656 -5.159049 0.468713 -0.004712 0.548456 -0.000000 0.000000 -0.000000 -56.715125 -13.268397 -3.621236 43.897807 0.037160 -4.506859 -5.649601 -5.951155 -2.944457 -7.012770 -0.000001 0.000001 0.000000 -0.000001 -0.000000 
-1.350852 79.378845 28.069803 14.479981 -1.809058 3.174296 28.560356 -0.474843 -0.652448 3.636590 -0.142694 -0.000543 3.636230 -0.154023 0.009011 -0.347477 0.394416 0.259422 -36.526049 6.486031 -3.033006 -0.000000 -0.000000 0.000000 16.141953 -24.695819 -7.205996 -26.313591 -47.254739 -41.843808 0.000000 -8.579895 -0.000013 2.526138 -27.599980 26.432234 0.753725 5.900946 -13.518624 0.127772 1.218074 -11.975128 0.001748 -0.143464 1.400224 -0.000001 -0.000002 -0.000001 1.796222 4.453426 11.944801 16.001077 15.860176 7.864948 0.336186 -18.781714 13.641601 0.000001 0.000000 -0.000002 -0.047954 21.904581 12.988988 -9.276905 45.013880 36.612549 0.000012 20.991932 -0.000002 -4.476693 10.632026 -15.422929 -1.743341 -0.000490 -4.417438 12.864814 -29.875647 -16.073850 -14.395331 1.865695 -48.479699 0.000000 0.000003 0.000000 -0.435966 2.112417 6.159434 0.237333 -1.469223 18.351764 0.064957 -0.776011 9.571026 -0.000000 -0.000000 -0.000000 -46.744445 3.800540 6.372418 39.683607 6.498836 -2.859825 -6.419862 0.078679 -5.518220 0.468922 -0.004708 0.548189 -0.000000 0.000001 -0.000000 -51.404000 -12.987300 -3.722511 40.869789 0.514096 -4.554051 -5.661674 -5.983243 -2.835391 -7.012767 0.000002 0.000001 -0.000000 0.000001 0.000000 
